<?xml version="1.0" encoding="utf-8"?>
<!-- Generator: Adobe Illustrator 19.0.0, SVG Export Plug-In . SVG Version: 6.00 Build 0)  -->
<svg version="1.1" id="Слой_1" xmlns="http://www.w3.org/2000/svg" xmlns:xlink="http://www.w3.org/1999/xlink" x="0px" y="0px"
	 viewBox="0 0 216.7 250.4" style="enable-background:new 0 0 216.7 250.4;" xml:space="preserve">
<style type="text/css">
	.st0{fill:#fea02c;}
	.st1{fill:#FFFFFF;}
	.st2{fill:#F41157;}
	.st3{fill:#4d07ff;animation: bob 5s ease-in-out 0s infinite;}
	.st4{fill:#9F9FFF;animation: bob 5s ease-in-out -1s infinite;}
	.st5{fill:none;stroke:#F41157;stroke-width:3;stroke-linecap:round;stroke-linejoin:round;stroke-miterlimit:10;}
	.st6{animation: bob 5s ease-in-out 0s infinite;fill:#FFC5D0;}
	.st7{fill:none;stroke:#4d07ff;stroke-linecap:round;stroke-linejoin:round;stroke-miterlimit:10;}
	.st8{fill:none;stroke:#FFFFFF;stroke-linecap:round;stroke-linejoin:round;stroke-miterlimit:10;}
	.st9{fill:none;stroke:#4d07ff;stroke-miterlimit:10;}
	.st10{fill:none;stroke:#F41157;stroke-linecap:round;stroke-linejoin:round;stroke-miterlimit:10;}
	@keyframes bob {
		0% {
			transform: translateY(-2px);
		}

		50% {
			transform: translateY(2px);
		}

		100% {
			transform: translateY(-2px);
		}
	}
</style>
<g id="BG">
	<path id="XMLID_1237_" class="st0" d="M160,42.5v141.3H54.7v-47.3c2.2-1,4.5-2.2,4.5-2.2l-4.5-6V42.5h70.8l-2.8,15.3l16.5-9.2
		l4.6,10.6l4.9-15.5l4.2,1.1l1.4-2.4H160z"/>
	<polygon id="XMLID_956_" class="st1" points="160,95.7 160,157.4 157.1,163.8 88.1,70 86,65.6 	"/>
	<polygon id="XMLID_1034_" class="st1" points="80.6,74.2 54.7,125.2 54.7,83.2 77.8,70 	"/>
	<polygon id="XMLID_1027_" class="st1" points="125.3,42.5 82.6,67.6 92.5,42.5 	"/>
	<polygon id="XMLID_1191_" class="st1" points="70,42.5 81.6,65.7 54.7,71.9 54.7,42.5 	"/>
	<polygon id="XMLID_1059_" class="st0" points="128,44.9 135.2,31.1 144.9,31.8 136.8,42.5 	"/>
	<polygon id="XMLID_1186_" class="st0" points="150.7,33.9 150.7,26 155.8,31.1 	"/>
</g>
<g id="Fire_8_">
	<polygon id="XMLID_1157_" class="st2" points="103.9,207.9 122.7,205.9 119.6,202.9 142.8,197.7 133.3,194.7 138,191.4 131.3,190 	
		"/>
	<polygon id="XMLID_1189_" class="st0" points="117,199.3 129.8,198.9 128,196.3 131.3,194.9 129.4,193.6 	"/>
	<path id="XMLID_1098_" class="st2" d="M60.6,183.8c-0.6,0.5-16.6,0-16.6,0l7.6-3.8l-4.8-17.1l10.3,4.8l-0.3-11.3l24.7,6.8l-2.1,8.4
		L60.6,183.8z"/>
	<path id="XMLID_1204_" class="st2" d="M45.5,171.5c-0.3-0.6-3.3-11.1-3.3-11.1l-3.3,6.7L45.5,171.5z"/>
	<polygon id="XMLID_1190_" class="st2" points="162.8,177.5 153.2,177.5 153.2,185.4 164.3,186.8 	"/>
</g>
<g id="Tablet_4_">
	<path id="XMLID_1305_" class="st3" d="M134,191.4l-31.1,18.4c-0.9,0.5-1.9,0.5-2.8,0L57,184.1c-1.8-1-1.8-3.6,0-4.7L88,161.1
		c0.9-0.5,1.9-0.5,2.8,0l43.2,25.6C135.8,187.8,135.8,190.3,134,191.4z"/>
	<path id="XMLID_1213_" class="st4" d="M97.2,197.5L72.9,183c-1-0.6-1-2,0-2.6l17.5-10.3c0.5-0.3,1.1-0.3,1.6,0l24.3,14.4
		c1,0.6,1,2,0,2.6l-17.5,10.3C98.3,197.7,97.7,197.7,97.2,197.5z"/>
	<line id="XMLID_1155_" class="st5" x1="107.2" y1="199.1" x2="116.7" y2="193.6"/>
</g>
<g id="Hand_9_">
	<path id="XMLID_1207_" class="st6" d="M89.9,168.5l0.5,0l9.6,0c4.6,0,8.3-3.7,8.3-8.3l0-0.1l0-62.4l0-0.6c0-2.4-1.9-4.3-4.3-4.3
		l-5,0v0c-0.7-1.1-1.8-1.9-3.2-1.8l-5.4,0l0-12.3c0-2.3-1.7-4.3-4-4.6c-2.6-0.2-4.8,1.8-4.8,4.4l0,19.1l0,62.5l0,5.7
		c0,1.4,1.2,2.6,2.6,2.6L89.9,168.5z"/>
	<path id="XMLID_1185_" class="st6" d="M81.6,123.8l-8.8-7.7c-1.3-1.1-2-2.7-2-4.5v-8.2c0-2.1,1.1-4,2.9-5.1l8.7-5.3L81.6,123.8z"/>
	<path id="XMLID_1227_" class="st7" d="M85.9,93.6l0.3,1.3c0.8,3.1-0.6,6.3-3.4,7.9l-0.7,0.4v4h0c5.2,0,9.5,4.2,9.5,9.5v1.5"/>
	<path id="XMLID_1269_" class="st7" d="M90.1,93.1v9.6c0,2.1,1.7,3.8,3.8,3.8h3c1.2,0,2.2-1,2.2-2.2v-8.9"/>
	<path id="XMLID_1261_" class="st7" d="M99.1,104.2v1c0,2.2,1.8,3.9,3.9,3.9h4.1"/>
	<path id="XMLID_1278_" class="st7" d="M97,101h-3.1c-0.8,0-1.4,0.7-1.4,1.6v0c0,0.9,0.6,1.6,1.4,1.6H97"/>
	<path id="XMLID_1279_" class="st7" d="M106.1,103.4h-3.1c-0.8,0-1.4,0.7-1.4,1.6v0c0,0.9,0.6,1.6,1.4,1.6h3.1"/>
	<path id="XMLID_1291_" class="st7" d="M80.6,95.3l0.8,1.2c0.4,0.6,1.2,0.9,1.9,0.6v0c0.8-0.4,1.2-1.3,0.8-2.1l-0.7-1.4"/>
	<polygon id="XMLID_1309_" class="st4" points="108.3,182.1 108.3,175.8 108.3,132.1 81.6,132.1 81.6,175.8 	"/>
	<circle id="XMLID_1113_" class="st2" cx="82.6" cy="67.7" r="11"/>
	<circle id="XMLID_1208_" class="st1" cx="82.6" cy="67.7" r="6.2"/>
	<line id="XMLID_1142_" class="st7" x1="74.2" y1="100.7" x2="68.9" y2="95.4"/>
	<line id="XMLID_1131_" class="st7" x1="68.9" y1="100.7" x2="74.2" y2="95.4"/>
</g>
<g id="Lightning_2_">
	<path id="XMLID_1194_" class="st0" d="M41.1,182.5l16.9,8.3c0.4,0.2,0.9,0,1.1-0.5l1.9-8c0.1-0.3,0.4-0.6,0.7-0.6l9,0.2
		c0.8,0,1.1-1.1,0.4-1.4l-14.8-7.6c-0.5-0.2-1,0.1-1.1,0.6l-0.8,8.1c0,0.4-0.4,0.7-0.8,0.7l-12-1.2C40.6,181,40.3,182.1,41.1,182.5z
		"/>
	<path id="XMLID_1199_" class="st0" d="M88.2,184l-5.7,6.4c-0.3,0.3-0.2,0.8,0.1,1.1l3.2,2.2c0.3,0.2,0.4,0.5,0.3,0.8l-0.9,3.4
		c-0.2,0.8,0.8,1.3,1.3,0.7l6.9-7.7c0.4-0.4,0.2-1.1-0.4-1.2l-3.7-1c-0.4-0.1-0.6-0.5-0.5-0.9l0.7-3.2
		C89.6,183.9,88.7,183.5,88.2,184z"/>
</g>
<g id="Hand_2_8_">
	<path id="XMLID_1198_" class="st1" d="M102.7,140.8l-10.6,20.1c-0.2,0.4,0,0.9,0.4,1l7,2.8c0.4,0.1,0.6,0.6,0.4,0.9l-4.4,13.2
		c0,0,0.5,0.3,1-0.1l12.9-19.9c0.3-0.4,0.1-0.9-0.3-1.1l-6.7-2.8c-0.3-0.1-0.5-0.5-0.4-0.8l2.2-12.9
		C104.2,140.4,103.1,140,102.7,140.8z"/>
	<path id="XMLID_1196_" class="st6" d="M67,138l0.4-0.3c1.2-0.8,2.6-1,4-0.6l11.6,3c2.5,0.6,4.4,2.5,5.1,5l3.4,12.3
		c0.6,2.3-0.7,4.6-3,5.2l0,0c-2.1,0.6-4.4-0.5-5.2-2.6l-2.2-6.1l-3.1,2L67,138z"/>
	<path id="XMLID_1246_" class="st2" d="M81.9,155.6l0.8-0.3c0.8-0.3,1.2-1.3,0.9-2.1l-10.9-27.2c-0.3-0.8-1.3-1.2-2.1-0.9l-0.8,0.3
		c-0.8,0.3-1.2,1.3-0.9,2.1l10.9,27.2C80.1,155.5,81,155.9,81.9,155.6z"/>
	<polyline id="XMLID_1099_" class="st8" points="89.7,174.1 91.5,178.5 96,178.5 	"/>
	<path id="XMLID_1260_" d="M76.1,130.8l15.3,38.1l0,0c0,0,0,0.1,0.1,0.1c0.1,0.3,0.2,0.7,0.3,1.1c0.5,2.3,0.7,6-0.6,6.6l-0.6,0.2
		c-1.3,0.5-3.8-2.4-5-4.3c-0.2-0.3-0.4-0.6-0.5-0.9c0-0.1-0.1-0.2-0.1-0.3l-7.2-17.8l-8.1-20.3c-1.1-2.7,0.1-3.5,1.8-4.1L72,129
		C74.4,128.1,75.2,128.5,76.1,130.8z"/>
	<path id="XMLID_1252_" class="st0" d="M84.2,151l7.1,17.8l0,0c0,0,0,0.1,0.1,0.1c0.1,0.3,0.2,0.7,0.3,1.1l-6.2,2.5
		c-0.2-0.3-0.4-0.6-0.5-0.9c0-0.1-0.1-0.2-0.1-0.3l-7.2-17.8L84.2,151z"/>
	<line id="XMLID_1184_" class="st9" x1="70.8" y1="136.3" x2="77.2" y2="133.7"/>
	<path id="XMLID_1218_" class="st6" d="M62.4,140.9l-0.4,0.3l-7.7,5c-3.7,2.4-4.7,7.3-2.4,10.9l0,0.1l7.7,12l0.3,0.5
		c1.2,1.9,3.7,2.4,5.6,1.2l4-2.6l0,0c1.1,0.6,2.4,0.5,3.5-0.2l4.4-2.8l2.6,4.1c1.2,1.8,3.6,2.6,5.6,1.6c2.2-1.2,3-4,1.6-6l-6.2-9.6
		l-7.8-12.1l-2.9-4.6c-0.7-1.1-2.3-1.5-3.4-0.7L62.4,140.9z"/>
	<line id="XMLID_1217_" class="st10" x1="77" y1="164.5" x2="71.7" y2="156.3"/>
	<line id="XMLID_1244_" class="st10" x1="69.1" y1="167.1" x2="65" y2="160.7"/>
	<path id="XMLID_1247_" class="st10" d="M90.2,155.9l-1.2,0.4c-0.8,0.2-1.2,1.1-0.9,1.9l0,0c0.3,0.7,1,1,1.7,0.8l1.2-0.3"/>
	<path id="XMLID_1245_" class="st10" d="M86,167.5l-2.1,1.4c-0.7,0.5-1.7,0.3-2.2-0.5l0,0c-0.5-0.7-0.3-1.7,0.5-2.2l2.1-1.4"/>
</g>
<g id="Head_9_">
	<path id="XMLID_1294_" class="st6" d="M167.4,148.1c0,14.6-11.8,26.5-26.5,26.5c-14.6,0-26.5-11.8-26.5-26.5
		c0-6.6,2.4-12.6,6.3-17.2c4-4.7,9.7-8,16.1-9c0.2,0,3-0.3,4-0.3c0.4,0,1.8,0.1,2,0.1c10.7,0.8,19.6,8,23,17.8
		C166.9,142.1,167.4,145,167.4,148.1z"/>
	<path id="XMLID_1202_" class="st6" d="M167.4,148.1c0,14.6-11.8,26.5-26.5,26.5c-14.6,0-26.5-11.8-26.5-26.5
		c0-6.6,2.4-12.6,6.3-17.2c4-4.7,9.7-8,16.1-9c0.2,0,3-0.3,4-0.3c0.4,0,1.8,0.1,2,0.1c10.7,0.8,19.6,8,23,17.8
		C166.9,142.1,167.4,145,167.4,148.1z"/>
	<path id="XMLID_1253_" class="st3" d="M153.3,134.6c1.7,5.7,6.6,7.3,11.7,7.9c0.8,0.1,1.2,1.6,2,1.5c-0.2-1.6-0.6-3.1-1.1-4.6
		c-3.4-9.8-12.3-17-23-17.8c-0.2,0-1.7-0.1-2-0.1c-1,0-3.8,0.3-4,0.3c-6.4,1-12.1,4.3-16.1,9c-0.9,1-1.6,2.1-2.3,3.2
		C130.5,138.3,147.3,136,153.3,134.6z"/>
	<path id="XMLID_1138_" class="st1" d="M155.2,142.8c0-0.1,0-0.2,0-0.3c-0.2-1.6-1.5-2.9-3.1-2.8l-2.5,0l-2.1,0l-0.1,0
		c-1.5,0-2.7,1.1-3,2.6l0,0.6c0,0.3,0,0.6,0.1,0.9c0.4,1.3,1.5,2.2,2.8,2.2l0.1,0l0.1,0l4.7,0c0.2,0,0.4,0,0.6-0.1
		C154.1,145.6,155.2,144.4,155.2,142.8z"/>
	<path id="XMLID_1187_" d="M148.2,139.7l-0.7,0l-0.1,0c-1.5,0-2.7,1.1-3,2.6l0,0.6c0,0.3,0,0.6,0.1,0.9c0.4,1.3,1.5,2.2,2.8,2.2
		l0.1,0l0.1,0l3.9,0C150.4,143.9,149.3,141.8,148.2,139.7z"/>
	<polyline id="XMLID_1118_" class="st10" points="136,148.7 129.2,157.3 137.3,160.2 	"/>
	<path id="XMLID_1197_" class="st6" d="M165.1,156.9h3.3c5.2,0,9.4-3.2,9.4-7.2v0c0-4-4.2-7.2-9.4-7.2h-3.3V156.9z"/>
	<path id="XMLID_1192_" class="st10" d="M168,153.1c2.5,0,4.5-1.5,4.5-3.5v0c0-1.9-2-3.5-4.5-3.5"/>
	<path id="XMLID_1175_" class="st3" d="M118.5,134l7.5-9.8c1.1-1.4,3.1-1.6,4.5-0.5h0l9.1-7c1.2-0.9,2.9,0,2.8,1.5l0,0l3-1.7
		c5-3,11.3,1.2,10.5,7v0l1.2-0.5c6.2-2.4,12.4,3.6,10.3,9.9v0l0,0c3.2-0.3,5,3.5,2.9,5.9l-3.4,3.7l-10.6-12.9l-25-1.7L118.5,134z"/>
	<path id="XMLID_1193_" class="st4" d="M157.1,166.5l-0.6,0.6c-0.7,0.7-1.9,0.7-2.7,0L141,154.3c-0.7-0.7-0.7-1.9,0-2.7l0.6-0.6
		c0.7-0.7,1.9-0.7,2.7,0l12.8,12.8C157.9,164.6,157.9,165.8,157.1,166.5z"/>
	<path id="XMLID_1203_" class="st4" d="M141.7,167.1l-0.6-0.6c-0.7-0.7-0.7-1.9,0-2.7l12.8-12.8c0.7-0.7,1.9-0.7,2.7,0l0.6,0.6
		c0.7,0.7,0.7,1.9,0,2.7l-12.8,12.8C143.6,167.9,142.4,167.9,141.7,167.1z"/>
	<circle id="XMLID_1188_" class="st1" cx="149.1" cy="156.9" r="0.8"/>
	<circle id="XMLID_1201_" class="st1" cx="151.3" cy="159.1" r="0.8"/>
	<circle id="XMLID_1277_" class="st1" cx="147.1" cy="158.9" r="0.8"/>
	<circle id="XMLID_1225_" class="st1" cx="149.3" cy="161.1" r="0.8"/>
	<path id="XMLID_1173_" class="st1" d="M131.7,142.8c0-0.1,0-0.2,0-0.3c-0.2-1.6-1.5-2.9-3.1-2.8l-2.5,0l-2.1,0l-0.1,0
		c-1.5,0-2.7,1.1-3,2.6l0,0.6c0,0.3,0,0.6,0.1,0.9c0.4,1.3,1.5,2.2,2.8,2.2l0.1,0l0.1,0l4.7,0c0.2,0,0.4,0,0.6-0.1
		C130.7,145.6,131.7,144.4,131.7,142.8z"/>
	<path id="XMLID_1139_" d="M124.7,139.7l-0.7,0l-0.1,0c-1.5,0-2.7,1.1-3,2.6l0,0.6c0,0.3,0,0.6,0.1,0.9c0.4,1.3,1.5,2.2,2.8,2.2
		l0.1,0l0.1,0l3.9,0C126.9,143.9,125.8,141.8,124.7,139.7z"/>
	<path id="XMLID_1183_" class="st8" d="M137.7,177.8c-14.6,0-26.5-11.8-26.5-26.5"/>
</g>
</svg>
