<?xml version="1.0" encoding="utf-8"?>
<!-- Generator: Adobe Illustrator 19.0.0, SVG Export Plug-In . SVG Version: 6.00 Build 0)  -->
<svg version="1.1" id="Слой_1" xmlns="http://www.w3.org/2000/svg" xmlns:xlink="http://www.w3.org/1999/xlink" x="0px" y="0px"
	 viewBox="0 0 216.7 250.4" style="enable-background:new 0 0 216.7 250.4;" xml:space="preserve">
<style type="text/css">
	.st0{fill:#F41157;animation: bob 5s ease-in-out 0s infinite;}
	.st1{fill:#9F9FFF;animation: bob 5s ease-in-out -1s infinite;}
	.st2{fill:#3400FE;}
	.st3{fill:none;stroke:#F41157;stroke-linecap:round;stroke-linejoin:round;stroke-miterlimit:10;}
	.st4{fill:#FFFFFF;}
	.st5{fill:#FFAE1F;}
	.st6{fill:#FFC5D0;}
	.st7{fill:none;stroke:#3400FE;stroke-linecap:round;stroke-miterlimit:10;}
	.st8{fill:none;stroke:#FFFFFF;stroke-miterlimit:10;}
	.st9{fill:none;stroke:#000000;stroke-linecap:round;stroke-linejoin:round;stroke-miterlimit:10;}
	@keyframes bob {
		0% {
			transform: translateY(-2px);
		}

		50% {
			transform: translateY(2px);
		}

		100% {
			transform: translateY(-2px);
		}
	}
</style>
<g id="Window_2">
	<g id="XMLID_984_">
		<path id="XMLID_57_" class="st0" d="M181.8,57.9l-53.2,131.8L11,189.8l30.8-76.3l50-28.8l75.8-26.7L181.8,57.9 M183.3,56.9
			l-15.9,0L91.3,83.8l-50.3,29l-31.5,78l119.8-0.1L183.3,56.9L183.3,56.9z"/>
	</g>
	<g id="XMLID_2591_">
		<polygon id="XMLID_1025_" class="st1" points="169.6,56.9 122.3,174.2 78.5,174.2 46.1,174.3 16.1,174.3 63.5,57.1 84.7,57 
			85.5,62.4 95.8,57 100.3,60.9 106.4,57 		"/>
		<polygon id="XMLID_941_" class="st0" points="111.3,129.9 78.5,174.2 46.1,174.2 18.9,167.5 36.1,124.8 44.6,125.8 45,137.8 
			90.2,123.1 85.1,133.1 		"/>
	</g>
</g>
<g id="Keyboard">
	<polygon id="XMLID_918_" points="180.1,138 158.3,149.7 99.6,126 102.3,119.4 173.6,128.1 182.8,131.4 	"/>
	<polygon id="XMLID_976_" class="st2" points="182.8,131.4 161,143.1 102.3,119.4 131.8,103.5 176.3,121.4 168.5,125.6 	"/>
	<line id="XMLID_940_" class="st3" x1="148.3" y1="114.1" x2="157.8" y2="118"/>
	<polygon id="XMLID_968_" class="st4" points="156.8,133.3 145.5,128.7 151.2,125.7 162.4,130.2 	"/>
	<polygon id="XMLID_969_" class="st4" points="134.5,114.3 126.2,111 129,109.4 137.3,112.8 	"/>
	<line id="XMLID_966_" class="st3" x1="153.4" y1="151.7" x2="156.7" y2="159.5"/>
	<line id="XMLID_933_" class="st3" x1="158.9" y1="154" x2="151.2" y2="157.3"/>
</g>
<g id="Head">
	<polygon id="XMLID_935_" class="st0" points="59.1,96.2 43.3,92.6 55.1,104.7 	"/>
	<polygon id="XMLID_937_" class="st5" points="60,100.3 50.3,96.9 56.8,103.9 	"/>
	<polygon id="XMLID_934_" class="st0" points="59.1,96.2 60.2,83.6 65.9,88.9 68.6,86 76.1,95 	"/>
	<polygon id="XMLID_724_" class="st5" points="61.6,96.2 61.6,88.9 66.4,93.6 68.3,89 73.6,95.4 	"/>
	<polyline id="XMLID_562_" class="st3" points="83.5,106.5 84.5,113.9 79.4,113.4 	"/>
	<path id="XMLID_1030_" class="st6" d="M84.2,104.7c0,8-6.5,14.5-14.5,14.5c-5.1,0-9.5-2.6-12.1-6.5c-1.5-2.3-2.4-5-2.4-8
		c0-8,6.5-14.5,14.5-14.5c6.1,0,11.3,3.7,13.4,9C83.8,100.8,84.2,102.7,84.2,104.7z"/>
	<path id="XMLID_943_" class="st4" d="M83.1,99.1c-1.5,0.7-5.6,1.1-12.1,1.4c-2.1,5.3-10,11-13.5,12.1c-1.5-2.3-2.4-5-2.4-8
		c0-8,6.5-14.5,14.5-14.5C75.7,90.1,80.9,93.8,83.1,99.1z"/>
	<path id="XMLID_727_" class="st4" d="M81.8,107.4c0-0.1,0.1-0.1,0.1-0.2c0.3-1.1-0.4-2.4-1.7-2.9l-2-0.8l-1.8-0.7l-0.1,0
		c-1.2-0.5-2.5-0.1-3.1,0.7L73,104c-0.1,0.2-0.1,0.4-0.1,0.6c0,1,0.6,1.9,1.7,2.4l0.1,0l0.1,0l3.9,1.5c0.2,0.1,0.3,0.1,0.5,0.1
		C80.2,108.9,81.4,108.4,81.8,107.4z"/>
	<path id="XMLID_952_" d="M81.9,107.2c0.3-1.1-0.4-2.4-1.7-2.9l-1-0.4l-1.7,4.2l1,0.4c0.2,0.1,0.3,0.1,0.5,0.1
		c1.2,0.2,2.4-0.3,2.9-1.3C81.9,107.3,81.9,107.3,81.9,107.2z"/>
	<path id="XMLID_874_" class="st6" d="M71,100.6l-2.5-1c-3.9-1.6-8-0.4-9.2,2.5l0,0c-1.2,3,1,6.6,4.9,8.2l2.5,1L71,100.6z"/>
	<path id="XMLID_797_" class="st3" d="M66.4,102.4c-1.6-0.6-3.3-0.2-3.8,1l0,0c-0.5,1.2,0.4,2.7,2,3.4"/>
</g>
<g id="Cross">
	<line id="XMLID_800_" class="st3" x1="43.5" y1="39.7" x2="43.1" y2="59.1"/>
	<line id="XMLID_798_" class="st3" x1="53" y1="49.6" x2="33.6" y2="49.2"/>
</g>
<g id="Pieces">
	<polygon id="XMLID_897_" class="st2" points="104.9,38.3 100.4,49.4 125.8,44.5 124.1,36.3 	"/>
	<polygon id="XMLID_970_" class="st2" points="93.9,46.8 98.6,32.2 92.4,36.7 	"/>
</g>
<g id="Hand">
	<path id="XMLID_974_" class="st6" d="M120.1,167.7l17.9-26.4c2.6-3.8,2.5-8.6,0.3-12.3c-0.8-1.3-1.9-2.5-3.3-3.4
		c-5.2-3.5-12.2-2.2-15.7,3l-16.5,24.4c-0.8,1.1-2.3,1.4-3.5,0.7l-25.5-18.2c-4.6-3.3-9.6-2.3-13.3-0.1c-1.3,0.8-2.5,1.9-3.4,3.3
		c-3.5,5.2-2.1,12.2,3,15.7l28.6,19.4l8.4,5.7c5.7,3.9,13.4,2.4,17.3-3.3L120.1,167.7z"/>
	<path id="XMLID_1019_" d="M107.8,145.4l-5.1,7.5c-0.8,1.1-2.3,1.4-3.5,0.7l-25.5-18.2c-4.6-3.3-9.6-2.3-13.3-0.1
		c-1.3,0.8-2.5,1.9-3.4,3.3c-3.5,5.2-2.1,12.2,3,15.7l28.6,19.4l8.4,5.7c5.7,3.9,13.4,2.4,17.3-3.3l5.7-8.4l6.5-9.6
		C120.2,154.1,114,149.7,107.8,145.4z"/>
	<path id="XMLID_967_" class="st6" d="M132.4,119.9c2.3-1.5,5.2-1.8,7.7-0.8l11.6,4.7c1,0.4,1.6,1.3,1.8,2.2c0.2,1.3-0.6,2.5-1.8,3
		l-5.1,2.2l-10.1,12l-17.3-14.6L132.4,119.9z"/>
	<path id="XMLID_971_" class="st6" d="M118.5,132.1l-1.9-5.7c-0.7-2,0.1-4.3,1.8-5.5l5.4-4c1.1-0.8,2.5-0.5,3.2,0.6l0,0
		c0.6,0.9,0.4,2.1-0.3,2.9l-2.6,2.4l4.3,1.7L118.5,132.1z"/>
	<path id="XMLID_930_" class="st3" d="M148.2,123.3l-5.2,2.1c-0.6,0.4-1.6,1-2.2,1.3l-2.6,2.1"/>
	<path id="XMLID_929_" class="st3" d="M141.9,120.7l-5.2,2.1c-0.6,0.4-1.6,1-2.2,1.3l-2.6,2.1"/>
</g>
<g id="Window_1">
	
		<rect id="XMLID_977_" x="87.5" y="65.3" transform="matrix(0.3742 -0.9273 0.9273 0.3742 -14.2476 154.7155)" class="st0" width="40.1" height="45.2"/>
	<path id="XMLID_972_" class="st6" d="M111.4,93.1c-2.2,5.4-5.3,10.3-9,14.4L79.1,98l15-37.2l20.5,8.3
		C115.6,77,114.6,85.2,111.4,93.1z"/>
	<path id="XMLID_931_" class="st4" d="M97.8,82c-1.2,3-4.8,4.6-8.5,3.9c-0.5-0.1-1-0.2-1.5-0.4l-3.2-1.2l5.1-12.5l3.1,1.2
		c3.9,1.5,6.1,5.2,5.2,8.6C98,81.6,97.9,81.8,97.8,82z"/>
	<path id="XMLID_1021_" class="st2" d="M98,81.4c0.6-2.2-0.2-4.7-1.9-6.5c-3,3.3-5.8,6.8-8.6,10.3l0.3,0.1c0.5,0.2,1,0.3,1.5,0.4
		c3.6,0.7,7.2-0.8,8.5-3.8C97.9,81.8,98,81.6,98,81.4z"/>
	
		<rect id="XMLID_721_" x="90.9" y="69" transform="matrix(0.9273 0.3742 -0.3742 0.9273 35.6466 -37.1334)" class="st4" width="45.2" height="8.4"/>
	<line id="XMLID_722_" class="st7" x1="107.6" y1="95" x2="109.2" y2="110.2"/>
	
		<rect id="XMLID_898_" x="87.5" y="65.3" transform="matrix(0.3742 -0.9273 0.9273 0.3742 -14.2476 154.7155)" class="st8" width="40.1" height="45.2"/>
	<line id="XMLID_932_" class="st9" x1="122.6" y1="76.9" x2="128.3" y2="79.2"/>
</g>
<g id="Fire">
	<polygon id="XMLID_1051_" class="st5" points="40.3,179.5 41.5,184.5 11.7,185.3 14.8,177.7 18.3,169 22.9,157.6 32.5,155.9 
		30.2,161.5 47.3,157.1 41.9,163.2 57.1,171.3 	"/>
	<polygon id="XMLID_938_" class="st5" points="35.6,149.7 38.6,141.8 40.5,145.8 38.6,150.6 	"/>
	<polygon id="XMLID_942_" class="st5" points="31.2,147.6 21.2,130.4 20.1,139 	"/>
	<polygon id="XMLID_939_" class="st5" points="48.4,181.5 52.5,194.9 66.4,196.8 55.1,184.4 	"/>
	<polygon id="XMLID_1010_" class="st0" points="41.4,167.6 38,170.6 43.3,173.1 	"/>
	<path id="XMLID_1047_" class="st0" d="M23,174.3l8.2,14.9l-16.5-11.5l3.5-8.7c3.2-1.7,7.4-4.1,7.4-4.1L23,174.3z"/>
</g>
<g id="Keys">
	<polygon id="XMLID_936_" class="st2" points="201.5,128.2 182.1,120.4 191.9,115.2 211.3,123 	"/>
	<polygon id="XMLID_945_" class="st2" points="139,173.1 108.7,160.9 118.4,155.6 148.8,167.9 	"/>
	<polygon id="XMLID_946_" class="st1" points="80.1,156.6 64.3,149.9 72.1,146 87.8,152.7 	"/>
	<polygon id="XMLID_948_" class="st2" points="162.9,106.4 135.3,95.3 146.6,89.7 174.2,100.8 	"/>
	<polygon id="XMLID_961_" class="st2" points="181.6,96.2 172.8,92.6 178.4,89.8 187.2,93.4 	"/>
	<polygon id="XMLID_963_" class="st2" points="138.1,76.1 112.4,65.7 121.3,61.3 147,71.7 	"/>
	<polygon id="XMLID_964_" class="st5" points="121.3,61.3 132.9,58.5 133.1,62.3 152,53.8 146.5,64 154.4,64.7 147,71.7 	"/>
	<polygon id="XMLID_965_" class="st5" points="178.4,89.8 191.2,83.6 187.8,88.2 192.1,89.7 187.2,93.4 	"/>
</g>
</svg>
