<?xml version="1.0" encoding="utf-8"?>
<!-- Generator: Adobe Illustrator 19.0.0, SVG Export Plug-In . SVG Version: 6.00 Build 0)  -->
<svg version="1.1" id="Слой_1" xmlns="http://www.w3.org/2000/svg" xmlns:xlink="http://www.w3.org/1999/xlink" x="0px" y="0px"
	 viewBox="0 0 216.7 250.4" style="enable-background:new 0 0 216.7 250.4;" xml:space="preserve">
<style type="text/css">
	.st0{fill:#FFC5D0;animation: bob 5s ease-in-out 0s infinite;}
	.st1{fill:none;stroke:#F41157;stroke-linecap:round;stroke-linejoin:round;stroke-miterlimit:10;}
	.st2{fill:#FFAE1F;animation: bob 5s ease-in-out 0s infinite;}
	.st3{fill:#F41157;animation: bob 5s ease-in-out -1s infinite;}
	.st4{fill:#FFFFFF;}
	.st5{fill:#3400FE;}
	.st6{fill:#9F9FFF;}
	.st7{fill:none;stroke:#FFFFFF;stroke-linecap:round;stroke-linejoin:round;stroke-miterlimit:10;}
	.st8{fill:none;stroke:#FFAE1F;stroke-linecap:round;stroke-linejoin:round;stroke-miterlimit:10;}
	.st9{fill:none;stroke:#000000;stroke-miterlimit:10;}
	.st10{fill:none;stroke:#000000;stroke-linecap:round;stroke-linejoin:round;stroke-miterlimit:10;}
	@keyframes bob {
		0% {
			transform: translateY(-2px);
		}

		50% {
			transform: translateY(2px);
		}

		100% {
			transform: translateY(-2px);
		}
	}
</style>
<g id="Hand_2_7_">
	<path id="XMLID_1368_" class="st0" d="M101.7,141.2l-22.7-0.1c-1.4,0-2.7-0.7-3.5-1.9l-2.1-3.2c-0.6-2.3-2.7-3.8-5-3.8h-2.8
		c0-0.7-1-1.4-2.5-1.1l-1.2,0.1c-2.4,0.2-4.1,2.3-3.9,4.7l-3.5,0.5c-2.5,0.4-4.1,2.8-3.4,5.2l3.1,11.7c0.4,1.4,1.3,2.5,2.6,3
		l15.7,6.9l-4.7,2.8l-2.9-1.3c-2.2-0.9-4.8-0.2-6.1,1.8c-0.2,0.3-0.4,0.6-0.6,1c-0.9,1.4-0.3,3.3,1.2,4.1l7.1,3.5
		c2.3,1.1,4.9,1.2,7.3,0.3l13.3-5.2v26.3h29.3v-47.4C116.5,142.6,109.4,141.1,101.7,141.2z"/>
	<path id="XMLID_1354_" class="st1" d="M58.4,137l1.8,7.1c0.6,2.2,2.2,3.9,4.3,4.5l7.9,2.7"/>
	<path id="XMLID_1381_" class="st1" d="M66.6,133.7l2.7,7.2c0.8,2.1,2.7,3.7,4.9,4.1l5.8,1"/>
	<path id="XMLID_1353_" class="st1" d="M74.9,161.6l8-7.6c3.3-3.1,7.7-4.9,12.3-4.9h8.8"/>
	<path id="XMLID_1367_" class="st1" d="M59.3,170.5l0.3-0.4c0.5-0.7,1.5-1,2.4-0.6l0.1,0.1c1,0.5,1.4,1.8,0.8,2.7v0"/>
</g>
<g id="Window_7_">
	<polygon id="XMLID_1335_" class="st2" points="51,80.3 40.5,67.6 41.9,76.3 25.3,67.6 38.5,87.7 35.8,89 43,102.9 	"/>
	<rect id="XMLID_1715_" x="43" y="79.5" class="st3" width="35.7" height="53.7"/>
	<g id="XMLID_1363_">
		<path id="XMLID_134_" d="M59.1,133.2H58c-2.9-7.2-7.6-19.3-11.5-29.2c-1.3-3.3-2.5-6.4-3.5-8.9v-2.8c1.2,2.9,2.7,6.9,4.4,11.3
			C51.4,113.7,56.2,126,59.1,133.2z"/>
	</g>
	<g id="XMLID_1417_">
		<path id="XMLID_980_" d="M78.7,119.3v1.3c-0.1,0-0.3-0.1-0.4-0.2L44.2,79.8c-0.1-0.1-0.1-0.2-0.1-0.3h1.2L78.7,119.3z"/>
	</g>
	<g id="XMLID_1365_">
		<path id="XMLID_155_" d="M78.7,90.4v1.2c-6.4-3.8-17.5-9-17.6-9c-0.3-0.1-0.4-0.4-0.3-0.7c0.1-0.3,0.4-0.4,0.7-0.2
			C61.6,81.7,72.2,86.6,78.7,90.4z"/>
	</g>
	<rect id="XMLID_1235_" x="43" y="79.5" width="35.6" height="8.2"/>
	<circle id="XMLID_1239_" class="st2" cx="66.5" cy="83.6" r="2.2"/>
	<g id="XMLID_1333_">
		<path id="XMLID_31_" class="st2" d="M73.3,82.4c0.7,0,1.2,0.5,1.2,1.2s-0.5,1.2-1.2,1.2c-0.7,0-1.2-0.5-1.2-1.2
			S72.6,82.4,73.3,82.4 M73.3,81.4c-1.2,0-2.2,1-2.2,2.2s1,2.2,2.2,2.2c1.2,0,2.2-1,2.2-2.2S74.5,81.4,73.3,81.4L73.3,81.4z"/>
	</g>
</g>
<g id="Head_8_">
	<circle id="XMLID_1334_" class="st0" cx="111.4" cy="87.7" r="25.3"/>
	<polyline id="XMLID_1336_" class="st1" points="112.3,88.6 117.3,98.5 109.4,101 	"/>
	<path id="XMLID_1343_" class="st0" d="M134.3,95.5h4c6.2,0,11.2-3.8,11.2-8.5v0c0-4.7-5-8.5-11.2-8.5h-4V95.5z"/>
	<path id="XMLID_1338_" class="st1" d="M137.9,91c3,0,5.4-1.8,5.4-4.1v0c0-2.3-2.4-4.1-5.4-4.1"/>
	<path id="XMLID_949_" class="st4" d="M120.3,85.8c0-0.1,0-0.2,0-0.3c0.2-1.7,1.6-3,3.3-3l2.6,0l2.3,0l0.1,0c1.6,0,2.9,1.2,3.1,2.7
		l0.1,0.7c0,0.3,0,0.7-0.1,0.9c-0.4,1.3-1.6,2.3-2.9,2.4l-0.1,0l-0.1,0l-5,0c-0.2,0-0.4,0-0.6-0.1C121.4,88.8,120.3,87.4,120.3,85.8
		z"/>
	<path id="XMLID_947_" d="M127.7,82.5l0.8,0l0.1,0c1.6,0,2.9,1.2,3.1,2.7l0.1,0.7c0,0.3,0,0.7-0.1,0.9c-0.4,1.3-1.6,2.3-2.9,2.4
		l-0.1,0l-0.1,0l-4.2,0C125.4,86.9,126.5,84.7,127.7,82.5z"/>
	<path id="XMLID_1366_" d="M95.2,75.9c9.4,2.5,30.5,2.5,37.9-1.2c-4.4-7.4-12.5-12.4-21.8-12.4c-11.9,0-21.9,8.2-24.6,19.3
		C92.3,80.7,95,75.9,95.2,75.9z"/>
	<path id="XMLID_1349_" d="M86.8,81.6c1.7-8.5,6.7-29.8,30-26.2l-12.3,18l-8.5,0.1L86.8,81.6z"/>
	<path id="XMLID_1352_" d="M99.2,70.5c0,0,16.1-27.4,35.1-15.8l-15.7,16.5l-7.6-3.8L99.2,70.5z"/>
	<path id="XMLID_1355_" d="M113.4,74.1c0,0,18.3-22,29.3-11.6l-15.4,13l-4.6-3.4L113.4,74.1z"/>
	<path id="XMLID_1340_" d="M128.1,72c0,0,9.8-5.3,13.8-1.2l-8.7,3.9L128.1,72z"/>
</g>
<g id="Notebook_2_">
	<polygon id="XMLID_1342_" class="st4" points="119.4,121.3 112.4,121.8 103.4,128 110.8,127.3 	"/>
	<polygon id="XMLID_1215_" class="st5" points="71.5,144.2 98.5,142.5 149.7,106.9 147.6,103.9 69.5,141.2 	"/>
	
		<rect id="XMLID_950_" x="53.8" y="91" transform="matrix(0.8211 -0.5708 0.5708 0.8211 -47.3183 67.3534)" class="st5" width="60.1" height="36.3"/>
	<path id="XMLID_1427_" class="st6" d="M111.5,108.5l-38,26.4c-1,0.7-2.4,0.4-3.1-0.6l-5.1-7.3l-5.4-7.8l-2.2-3.2
		c-0.7-1-0.4-2.4,0.6-3.1l38-26.4c1-0.7,2.4-0.4,3.1,0.6l12.7,18.3C112.8,106.5,112.5,107.8,111.5,108.5z"/>
	<path id="XMLID_1425_" class="st4" d="M73.9,121.8L73.9,121.8l-0.3,0.2l-6.4,4.4c-0.3,0.2-0.6,0.3-0.9,0.5c-0.3,0.1-0.7,0.2-1,0.3
		l-5.4-7.8c0.4-0.6,0.9-1.2,1.5-1.6l3.4-2.3l2.9-2l0.1-0.1c2-1.4,4.7-1,6.4,0.7l0.6,0.8c0.3,0.4,0.5,0.9,0.7,1.3
		C76.2,118.2,75.6,120.5,73.9,121.8z"/>
	<path id="XMLID_951_" d="M66.8,114.1l1-0.7l0.1-0.1c2-1.4,4.7-1,6.4,0.7l0.6,0.8c0.3,0.4,0.5,0.9,0.7,1.3c0.7,2.1,0.1,4.3-1.6,5.6
		l-0.1,0.1l-0.1,0.1l-5.3,3.6C67.8,121.8,67.2,117.9,66.8,114.1z"/>
	<polygon id="XMLID_955_" class="st5" points="69.5,141.2 96.4,139.5 147.6,103.9 118.8,106.9 	"/>
	<polygon id="XMLID_1406_" points="98.5,129.6 95.6,131.6 85.8,138.4 81.6,138.8 78.4,139.1 91.6,130 	"/>
	<polygon id="XMLID_1385_" class="st6" points="95.6,131.6 85.8,138.4 81.6,138.8 91.6,131.8 	"/>
	<polygon id="XMLID_1345_" class="st2" points="97.3,115 87.7,115.6 74.8,124.6 85.1,123.5 	"/>
	<polygon id="XMLID_1234_" class="st2" points="99.7,92.9 93.6,93 86.1,98.2 92.8,97.6 	"/>
	<polygon id="XMLID_1409_" points="119.4,121.3 117.1,122.9 110.8,127.3 105.9,127.8 103.4,128 112.4,121.8 	"/>
	<polygon id="XMLID_1407_" class="st4" points="117.1,122.9 110.8,127.3 105.9,127.8 112.4,123.2 	"/>
	<circle id="XMLID_1346_" class="st3" cx="75.8" cy="97" r="1.5"/>
	<line id="XMLID_954_" class="st7" x1="74.2" y1="137.6" x2="116.5" y2="108.5"/>
	<polyline id="XMLID_1332_" class="st1" points="94.1,101.7 106.8,108.6 98.6,117.7 	"/>
</g>
<g id="Hand_8_">
	<line id="XMLID_1375_" class="st1" x1="189.5" y1="129.9" x2="185.7" y2="128.5"/>
	<path id="XMLID_1370_" class="st3" d="M127.4,116.9l7.1-6.4c3.1-2.8,7.2-4,11.3-3.5l14.4,2c1.2,0.2,2.4,0.6,3.4,1.4l7.4,5.4
		c2.3,1.6,2.9,4.7,1.6,7.2v0c-0.8,1.4-2.4,2.2-4,1.9L127.4,116.9z"/>
	<path id="XMLID_1380_" class="st8" d="M168.7,115.2l-1.5,1.7c-0.8,0.9-0.5,2.2,0.5,2.8l0,0c1,0.7,2.4,0.5,3.1-0.4l1.2-1.5"/>
	
		<rect id="XMLID_1356_" x="119.4" y="117.3" transform="matrix(0.9836 0.1804 -0.1804 0.9836 25.6965 -22.4426)" class="st3" width="33.7" height="25.6"/>
	<path id="XMLID_1362_" class="st3" d="M160.4,147.5l-14.3-2.6l1.6-8.5L162,139c2.1,0.4,3.5,2.4,3.1,4.5l-0.2,1
		C164.5,146.5,162.5,147.9,160.4,147.5z"/>
	<path id="XMLID_1364_" class="st3" d="M164.6,140.3l-14.2-2.6l1.8-9.6l14.2,2.6c2.2,0.4,3.6,2.5,3.2,4.7l-0.3,1.8
		C168.9,139.2,166.8,140.7,164.6,140.3z"/>
	<path id="XMLID_1374_" class="st4" d="M135.3,107.3L135.3,107.3c-0.3,0.8,0,1.8,0.9,2.1l8.2,3.5c0.8,0.3,1.8,0,2.1-0.9v0
		c0.3-0.8,0-1.8-0.9-2.1l-8.2-3.5C136.6,106.1,135.7,106.5,135.3,107.3z"/>
	<path id="XMLID_1373_" class="st6" d="M188.2,129.6c0.7-1.7-2.8-4.7-4.4-5.4l-41.5-17.5c-1.7-0.7-3.6,0.1-4.3,1.7
		c-0.7,1.7,0.1,3.6,1.7,4.3l41.5,17.5C182.9,130.9,187.5,131.3,188.2,129.6z"/>
	
		<rect id="XMLID_1372_" x="169.6" y="121.4" transform="matrix(-0.9217 -0.388 0.388 -0.9217 290.5006 307.9879)" width="13.4" height="6.5"/>
	<path id="XMLID_1371_" class="st5" d="M181.3,130.3c1.7,0.7,6.2,1,6.9-0.6s-2.7-4.6-4.4-5.4L181.3,130.3z"/>
	<line id="XMLID_1358_" class="st9" x1="141.8" y1="113.6" x2="144.3" y2="107.6"/>
	<path id="XMLID_1369_" class="st3" d="M174.5,134.5l-4.1-2.6c-0.4-0.3-0.9-0.4-1.4-0.5l-15-2.8c-2.1-0.4-3.6-2.4-3.2-4.6l0.1-0.4
		c0.4-2.1,2.4-3.6,4.6-3.2l15.3,2.8c0.5,0.1,0.9,0.3,1.3,0.5l6.5,3.9c1.9,1.2,2.5,3.8,1.2,5.6l0,0
		C178.6,135.2,176.2,135.7,174.5,134.5z"/>
	<path id="XMLID_1377_" class="st8" d="M176.2,128.1l-1,1.7c-0.5,0.9-0.2,2,0.7,2.5l0,0c0.9,0.5,2,0.1,2.5-0.8l0.8-1.5"/>
	<line id="XMLID_1378_" class="st8" x1="166.8" y1="130.7" x2="156.1" y2="129.1"/>
	<line id="XMLID_1379_" class="st8" x1="163" y1="139.2" x2="153" y2="137.6"/>
</g>
<g id="Lightnings">
	<polygon id="XMLID_1226_" class="st2" points="37.1,118.3 42.7,146.9 59.1,141 69.5,146.9 53.4,125 47.8,130.5 	"/>
	<polygon id="XMLID_1337_" class="st2" points="106.1,131.2 98.6,147.3 91.9,142.8 85,147.2 93.7,136.6 97.8,138.5 	"/>
</g>
<g id="Stripes_1_">
	<line id="XMLID_1382_" class="st8" x1="33.4" y1="152.4" x2="25.3" y2="155.7"/>
	<line id="XMLID_1383_" class="st8" x1="35.8" y1="157.9" x2="32.2" y2="163.6"/>
	<line id="XMLID_1464_" class="st8" x1="158" y1="99.6" x2="165.1" y2="93.9"/>
	<line id="XMLID_1465_" class="st8" x1="161.6" y1="105.2" x2="177" y2="101"/>
</g>
<g id="Wire_1_">
	<line id="XMLID_1387_" class="st8" x1="140.6" y1="155.7" x2="146.8" y2="162"/>
	<line id="XMLID_1376_" class="st8" x1="146.8" y1="155.7" x2="140.6" y2="162"/>
	<line id="XMLID_1341_" class="st10" x1="196.6" y1="137" x2="182.4" y2="137"/>
	<line id="XMLID_1344_" class="st1" x1="189.5" y1="144" x2="189.5" y2="129.9"/>
	<path id="XMLID_1466_" class="st10" d="M78.7,143.7v39.8c0,2.1,1.7,3.7,3.7,3.7H143c2.1,0,3.7-1.7,3.7-3.7V170
		c0-2.1-1.7-3.7-3.7-3.7h-11.9c-2.1,0-3.7,1.7-3.7,3.7v6.6c0,2.1,1.7,3.7,3.7,3.7h47.5c2.1,0,3.7-1.7,3.7-3.7V144V137"/>
	<path id="XMLID_1475_" d="M85.3,141.1l-6.3,0.4l-3.8,2.6c-0.7,0.5-0.3,1.6,0.6,1.5l6-0.6c0.7-0.1,1.4-0.3,1.9-0.7l2-1.4
		C85.6,142.3,85.4,141.7,85.3,141.1z"/>
</g>
</svg>
