<?xml version="1.0" encoding="utf-8"?>
<!-- Generator: Adobe Illustrator 19.0.0, SVG Export Plug-In . SVG Version: 6.00 Build 0)  -->
<svg version="1.1" id="Слой_1" xmlns="http://www.w3.org/2000/svg" xmlns:xlink="http://www.w3.org/1999/xlink" x="0px" y="0px"
	 viewBox="0 0 216.7 250.4" style="enable-background:new 0 0 216.7 250.4;" xml:space="preserve">
<style type="text/css">
	.st0{
		fill:#FFAE1F;
	}
	.st1{
		fill:#F41157;
		animation: bob 5s ease-in-out 0s infinite;
	}
	.st2{
		fill:none;stroke:#3400FE;stroke-linecap:round;stroke-linejoin:round;stroke-miterlimit:10;
	}
	.st3{
		fill:none;stroke:#FFFFFF;stroke-linecap:round;stroke-linejoin:round;stroke-miterlimit:10;
		animation: bob 5s ease-in-out -2s infinite;
	}
	.st4{
		fill:#FFC5D0;
		animation: bob 5s ease-in-out 0s infinite;
	}
	.st5{
		fill:#3400FE;
	}
	.st6{
		fill:#9F9FFF;
	}
	.st7{
		fill:none;stroke:#F41157;stroke-width:3;stroke-linecap:round;stroke-linejoin:round;stroke-miterlimit:10;
	}
	.st8{
		fill:none;stroke:#F41157;stroke-linecap:round;stroke-linejoin:round;stroke-miterlimit:10;
	}
	.st9{
		fill:#FFFFFF;
	}
	.st10{
		fill:none;stroke:#3400FE;stroke-miterlimit:10;
	}
	.st11{
		fill:none;stroke:#000000;stroke-linecap:round;stroke-linejoin:round;stroke-miterlimit:10;
	}
	.st12{
		fill:none;stroke:#000000;stroke-linejoin:round;stroke-miterlimit:10;
	}
	@keyframes bob {
		0% {
			transform: translateY(-2px);
		}

		50% {
			transform: translateY(2px);
		}

		100% {
			transform: translateY(-2px);
		}
	}
</style>
<g id="Window_3_">
	<path id="XMLID_1982_" d="M99.3,129.7H57.3v38.1C72.3,156.3,85.4,142.5,99.3,129.7z"/>
	<polygon id="XMLID_1959_" class="st0" points="57.3,163.9 57.3,175.4 94.2,175.4 92.5,164.2 100.7,166.8 100.7,129.7 93.7,129.7 	
		"/>
	<rect id="XMLID_1806_" x="41.6" y="146.5" class="st1" width="26.9" height="11.7"/>
	<line id="XMLID_1936_" class="st2" x1="62.7" y1="172.3" x2="79.4" y2="161.2"/>
	<line id="XMLID_1946_" class="st2" x1="65.7" y1="176.8" x2="82.4" y2="165.7"/>
	<line id="XMLID_1948_" class="st2" x1="68.5" y1="181" x2="85.2" y2="169.9"/>
	<line id="XMLID_1935_" class="st3" x1="47.4" y1="152.5" x2="62.7" y2="152.5"/>
</g>
<g id="Pieces_4_">
	<polygon id="XMLID_1978_" class="st4" points="122.6,152.1 126.9,152.1 126.9,120 102.2,120 102.2,156.6 112,156.6 121,145.9 	"/>
	<path id="XMLID_1962_" class="st5" d="M65.4,78.4L65.4,78.4c-0.1,0-0.2-0.1-0.2-0.2v-3.5c0-1.5-1.2-2.6-2.6-2.6h-3.1
		c-1.5,0-2.6,1.2-2.6,2.6V80c0,1.5,1.2,2.6,2.6,2.6h3.1c0.1,0,0.1,0,0.2,0c0.5,0.7,1.3,1.1,2.1,1.1h0.6c1.5,0,2.8-1.3,2.6-2.9
		C68,79.4,66.7,78.4,65.4,78.4z"/>
	<polygon id="XMLID_1927_" class="st1" points="137,150.7 142.3,144.6 142.2,150.7 139.2,152.5 	"/>
	<polygon id="XMLID_1934_" class="st1" points="130.6,139.7 124.1,142.7 130,150.7 138.5,139.7 	"/>
	<polygon id="XMLID_1955_" class="st1" points="76.8,187.2 70,185.3 75.6,197.8 79.4,191.7 	"/>
</g>
<g id="Fire_2_2_">
	<polygon id="XMLID_1956_" class="st1" points="114,112.2 132.3,97.4 132.3,105.6 151.3,94.8 139.4,112.2 	"/>
	<polygon id="XMLID_1957_" class="st0" points="128.5,106.9 119.8,112.2 126.4,112.2 	"/>
</g>
<g id="Tablet_1_">
	<path id="XMLID_1954_" d="M142.5,121.9h-22.1c-1,0-1.4-1-0.8-1.6l3.7-3.6c0.8-0.8,2-1.2,3.2-1.2h22.1c1,0,1.4,1,0.8,1.6l-3.7,3.6
		C144.9,121.4,143.8,121.9,142.5,121.9z"/>
	<path id="XMLID_1970_" class="st6" d="M149.2,113.7l-30,27.6c-0.8,0.8-2.4,1.2-4.1,1.2l-90.3,0.1c-3.5,0-3.2-1.9-1.5-3.5l30-27.6
		c0.8-0.8,2.4-1.2,4.1-1.2l90.5-0.1C151.3,110.2,150.9,112.1,149.2,113.7z"/>
	<line id="XMLID_1958_" class="st3" x1="60.1" y1="122.7" x2="31.9" y2="137.9"/>
	<line id="XMLID_1966_" class="st3" x1="66.5" y1="122.7" x2="60.8" y2="139.7"/>
	<line id="XMLID_1968_" class="st3" x1="81.9" y1="120" x2="81.3" y2="139.7"/>
	<line id="XMLID_1971_" class="st3" x1="95.9" y1="120" x2="102" y2="139.7"/>
	<line id="XMLID_1972_" class="st3" x1="108.4" y1="120" x2="123.3" y2="135.3"/>
	<line id="XMLID_1984_" class="st3" x1="135.5" y1="118.7" x2="44.4" y2="118.7"/>
	<path id="XMLID_2020_" class="st5" d="M148,110.2l-75.5,0.1l-15,0c-1.7,0-3.3,0.5-4.1,1.2l-1,0.9l-4,3.7l-5.2,4.8l-19.8,18.2
		c-1.7,1.6-2.1,3.5,1.5,3.5l90.3-0.1c1.7,0,3.3-0.5,4.1-1.2l30-27.6C150.9,112.1,151.3,110.2,148,110.2z M131.1,115.8l-22.8,21
		c-0.6,0.6-1.8,0.9-3.1,0.9l-66.5,0.1c-2.7,0-4.5-1.4-3.2-2.6l12.9-11.9l1.8-1.7l5.8-5.3l2.3-2.1c0.6-0.6,1.8-0.9,3.1-0.9l7,0
		l59.5-0.1C132.4,113.2,132.4,114.6,131.1,115.8z"/>
	<line id="XMLID_1920_" class="st7" x1="122.7" y1="130.1" x2="133" y2="120.9"/>
</g>
<g id="Fire_4_">
	<path id="XMLID_2018_" class="st1" d="M75,101.1l-2.4,9.3l-0.7,2.7c-1.2,0-2.3,0.1-3.4,0.3l-7,0c-1.3,0-2.5,0.4-3.1,0.9l-2.3,2.1
		l-5.8,5.3l-1.8,1.7l-5.1-2.4l-17-7.8h12.9l-2.5-29.9L53,100.1l6.2-7.5L75,101.1z"/>
	<polygon id="XMLID_1979_" class="st0" points="55.9,116.3 50.2,121.6 48.4,116.2 44.3,103.6 52.4,112.5 	"/>
</g>
<g id="Woman">
	<path id="XMLID_1933_" class="st1" d="M110.1,93.2H90.6c-3.1,0-5.7-2.5-5.7-5.7v-8.4c0-3.1,2.5-5.7,5.7-5.7h14
		c6.1,0,11.1,5,11.1,11.1v3C115.7,90.7,113.2,93.2,110.1,93.2z"/>
	<path id="XMLID_1969_" d="M118.3,124.4V115c0-11.6-8.5-21-18.9-21H75.8c-10.5,0-18.9,9.4-18.9,21v9.4H118.3z"/>
	<path id="XMLID_1926_" class="st4" d="M116.9,96.5c0,10.8-8.7,19.5-19.5,19.5S78,107.3,78,96.5s8.7-18.1,19.5-18.1
		S116.9,85.7,116.9,96.5z"/>
	<path id="XMLID_1938_" class="st1" d="M84.2,90.7c12.8,2.8,22.8,1,25.4-0.5c1.7,1.5,3.8,2.3,4.9,2.3c0.9,0.2,1.2,1,2.1,1
		c-1.5-9.3-9.5-16.4-19.2-16.4c-9.4,0-17.2,6.7-19.1,15.5c0.5,0,1.2-0.1,1.9-0.2C81.8,92,83.1,91.4,84.2,90.7z"/>
	<polyline id="XMLID_1923_" class="st8" points="98.2,101.4 102,109.1 95.9,111 	"/>
	<path id="XMLID_1919_" class="st4" d="M114.6,105.6h3c4.8,0,8.6-2.9,8.6-6.6v0c0-3.6-3.9-6.6-8.6-6.6h-3V105.6z"/>
	<path id="XMLID_1810_" class="st8" d="M117.3,102.2c2.3,0,4.2-1.4,4.2-3.2v0c0-1.7-1.9-3.2-4.2-3.2"/>
	<path id="XMLID_1921_" class="st4" d="M80.3,92.5h-3c-4.8,0-8.6,2.9-8.6,6.6v0c0,3.6,3.9,6.6,8.6,6.6h3V92.5z"/>
	<path id="XMLID_1808_" class="st8" d="M77.6,95.9c-2.3,0-4.2,1.4-4.2,3.2v0c0,1.7,1.9,3.2,4.2,3.2"/>
	<path id="XMLID_1805_" class="st9" d="M104,100.8c0-0.1,0-0.2,0-0.2c0.1-1.3,1.2-2.3,2.5-2.3l2,0l1.8,0l0.1,0
		c1.2,0,2.2,0.9,2.4,2.1l0,0.5c0,0.3,0,0.5-0.1,0.7c-0.3,1-1.2,1.8-2.3,1.8l-0.1,0l-0.1,0l-3.8,0c-0.2,0-0.3,0-0.5-0.1
		C104.8,103.2,104,102.1,104,100.8z"/>
	<path id="XMLID_1803_" d="M109.7,98.4l0.6,0l0.1,0c1.2,0,2.2,0.9,2.4,2.1l0,0.5c0,0.3,0,0.5-0.1,0.7c-0.3,1-1.2,1.8-2.3,1.8l-0.1,0
		l-0.1,0l-3.2,0C107.9,101.8,108.8,100.1,109.7,98.4z"/>
	<path id="XMLID_1917_" class="st9" d="M83.2,100.8c0-0.1,0-0.2,0-0.2c0.1-1.3,1.2-2.3,2.5-2.3l2,0l1.8,0l0.1,0
		c1.2,0,2.2,0.9,2.4,2.1l0,0.5c0,0.3,0,0.5-0.1,0.7c-0.3,1-1.2,1.8-2.3,1.8l-0.1,0l-0.1,0l-3.8,0c-0.2,0-0.3,0-0.5-0.1
		C84.1,103.2,83.2,102.1,83.2,100.8z"/>
	<path id="XMLID_1814_" d="M88.9,98.3l0.6,0l0.1,0c1.2,0,2.2,0.9,2.4,2.1l0,0.5c0,0.3,0,0.5-0.1,0.7c-0.3,1-1.2,1.8-2.3,1.8l-0.1,0
		l-0.1,0l-3.2,0C87.2,101.7,88,100,88.9,98.3z"/>
	<path id="XMLID_1802_" class="st1" d="M82.7,73.5h-2.8c-3.6,0-6.5-2.9-6.5-6.5v-3c0-4.4,3.6-8,8-8h1.3c3.6,0,6.5,2.9,6.5,6.5v4.5
		C89.2,70.6,86.3,73.5,82.7,73.5z"/>
	<path id="XMLID_1925_" class="st1" d="M98.5,63.5H86.7c-1.5,0-2.7-1.2-2.7-2.7v-8.5c0-4.7,3.8-8.6,8.6-8.6h5.9
		c4.7,0,8.6,3.8,8.6,8.6V55C107.1,59.7,103.2,63.5,98.5,63.5z"/>
	<path id="XMLID_1931_" class="st1" d="M104.3,71H86c-3.1,0-5.7-2.5-5.7-5.7v-1c0-3.1,2.5-5.7,5.7-5.7h18.3c3.1,0,5.7,2.5,5.7,5.7v1
		C109.9,68.5,107.4,71,104.3,71z"/>
	<path id="XMLID_2028_" class="st1" d="M129.8,64l-2,6.3c-0.5,1.7-2.4,2.7-4.1,2.1l-8.7-2.7c-0.5-0.2-1-0.4-1.3-0.8
		c1.4-1.1,2.3-2.9,2.3-4.8v-1.3c0-3-2.2-5.5-5-6.1c0-0.2,0.1-0.3,0.2-0.5c0.7-1.6,2.5-2.3,4.1-1.8l8.6,2.7c0.7,0.2,1.2,0.6,1.6,1.1
		c0.5,0.7,1.2,1.2,2,1.5l0.2,0.1C129.4,60.5,130.4,62.3,129.8,64z"/>
	<path id="XMLID_1932_" class="st1" d="M100,89.5h-11c-7.4,0-13.4-6-13.4-13.4v-2.4c0-7.4,6-13.4,13.4-13.4h10.6
		c3.7,0,6.7,3,6.7,6.7v16.1C106.3,86.7,103.5,89.5,100,89.5z"/>
</g>
<g id="Hand_2_2_">
	<line id="XMLID_1974_" class="st10" x1="135" y1="72.1" x2="126.2" y2="70"/>
	<path id="XMLID_2014_" class="st6" d="M190.2,84.3l-11.7-11.6c-1.8-1.8-3.8-3.4-5.9-4.9l-0.7-0.5c-1.1-0.8-2.5-1-3.8-0.7l-1,0.2
		l-0.8-0.6c-0.9-0.7-2-0.9-3-0.7l-3,0.6l-1.3-0.8c-1.7-1.1-3.8-1.3-5.7-0.8l-12.1,3.6c-1,0.3-1.7,1.1-1.8,2.1
		c-0.2,1.6,1.1,2.8,2.6,2.7l9.6-0.8l7.8,15.8l0.7-0.7l13.8,13.6L190.2,84.3z"/>
	<path id="XMLID_1791_" class="st11" d="M144.7,118.7h4c2.4,0,4.4,1.9,4.4,4.4v39.4c0,2.4,1.9,4.4,4.4,4.4h29.5
		c2.4,0,4.4-1.9,4.4-4.4V83.5"/>
	<line id="XMLID_1953_" class="st11" x1="191.2" y1="83.2" x2="172.9" y2="101.4"/>
	<path id="XMLID_1980_" class="st1" d="M150.5,74.3l-0.1,0.6c-0.2,0.9,0.4,1.7,1.3,1.9l26.6,4.6c0.9,0.2,1.7-0.4,1.9-1.3l0.1-0.6
		c0.2-0.9-0.4-1.7-1.3-1.9L152.4,73C151.5,72.8,150.7,73.4,150.5,74.3z"/>
	<path id="XMLID_1973_" class="st0" d="M129.3,71.2l0.1-0.6c0.3-1.6,5.5-2,7.1-1.8l37.6,6.4c2.7,0.4,2.7,1.8,2.4,3.4l-0.1,0.6
		c-0.4,2.4-1.2,2.8-3.4,2.4l-37.6-6.4C133.8,75,129,72.8,129.3,71.2z"/>
	<path id="XMLID_1965_" class="st5" d="M134.5,75c0.3,0.1,0.7,0.2,0.9,0.2l13.6,2.3l1.1-6.4l-13.6-2.3c-0.2,0-0.6-0.1-0.9-0.1
		L134.5,75z"/>
	<line id="XMLID_1918_" class="st12" x1="171.2" y1="74.8" x2="170.1" y2="81.2"/>
	<path id="XMLID_2021_" class="st6" d="M162,80.9C162,80.9,162,80.9,162,80.9c-2.3-0.3-4.6-0.8-6.9-1.4l-4.3,1.5l-2.2-4.1
		c-0.8-1.5-2.5-2.3-4.2-1.9l-1.2,0.3c-1.7,0.4-2.6,2.4-1.8,4l3.5,6.6c0.9,1.7,2.3,2.9,4.1,3.5l7.5,2.6c2,0.7,4.2,0.5,6.1-0.6
		l5.9-3.4L162,80.9z"/>
	<path id="XMLID_1999_" class="st8" d="M142.2,78.4l2-0.6c0.6-0.2,1.3,0.1,1.6,0.7l0,0c0.4,0.7,0.1,1.7-0.6,2l-1.5,0.7"/>
	<line id="XMLID_2000_" class="st8" x1="160.8" y1="67" x2="163.9" y2="70"/>
	<line id="XMLID_2002_" class="st8" x1="167.8" y1="67.8" x2="169.4" y2="69.6"/>
</g>
<g id="Hand_1_2_">
	<polygon id="XMLID_1951_" class="st1" points="141.6,165.3 137,180.2 154.4,189.3 	"/>
	<path id="XMLID_24_" class="st6" d="M144.3,180.3c-1.6-1-3.7-0.7-5,0.6l-4.7,4.8c-0.7,0.7-1.7,1-2.6,0.8l0,0
		c-3-0.7-5.8-1.9-8.3-3.6l0,0c-1.3-0.9-1.7-2.7-0.8-4l7.2-10.7c0.9-1.3,2.2-2.1,3.8-2.2l7.7-0.6c1.3-0.1,2.5-0.9,2.9-2
		c0.9-2.1-0.7-4.5-3-4.5h-15.1c-0.8,0-1.7,0.3-2.3,0.9l-2.4,2.1l-5.3-1.5c-1-0.3-2.1-0.1-2.9,0.5l-3-0.7c-1.2-0.3-2.4,0.1-3.3,0.9
		l-3.5,3.6c-2,2-3.8,4.2-5.4,6.6L89.1,185l27.4,18.2l3.7-5.6l9.3-0.4c2.7-0.1,5.2-1.2,7.1-3l8.2-7.8
		C146.7,184.7,146.5,181.7,144.3,180.3z"/>
	<line id="XMLID_1976_" class="st2" x1="120.8" y1="163.2" x2="115.5" y2="171.6"/>
	<path id="XMLID_1988_" class="st2" d="M144.7,184.2l-1.2-0.6c-0.9-0.5-2-0.1-2.5,0.8l0,0c-0.4,0.8-0.1,1.9,0.7,2.3l0.7,0.4"/>
	<line id="XMLID_1997_" class="st2" x1="113.2" y1="162.1" x2="109.5" y2="167.4"/>
	<path id="XMLID_1985_" class="st2" d="M138.5,159.9l0.6,1.2c0.3,0.6,0.8,0.9,1.5,0.9h0.1c1.1,0,1.9-1.1,1.5-2.2l0,0"/>
</g>
<g id="Keys_2_">
	<path id="XMLID_1949_" class="st5" d="M35.1,169H18.8c-0.7,0-1.1-0.9-0.5-1.4l3.5-3.3c0.6-0.6,1.4-0.9,2.2-0.9h16.3
		c0.7,0,1.1,0.9,0.5,1.4l-3.5,3.3C36.7,168.6,36,169,35.1,169z"/>
	<path id="XMLID_1947_" class="st5" d="M191.3,136.7h-32.1c-1.4,0-2.1-1.8-1.1-2.7l6.9-6.5c1.2-1.1,2.7-1.7,4.3-1.7h32.1
		c1.4,0,2.1,1.8,1.1,2.7l-6.9,6.5C194.5,136.1,192.9,136.7,191.3,136.7z"/>
</g>
</svg>
